<svg width="42" height="23" viewBox="0 0 42 23" fill="none" xmlns="http://www.w3.org/2000/svg">
<path d="M1.83276 9.92651C1.00434 9.92651 0.332764 10.5981 0.332764 11.4265C0.332764 12.2549 1.00434 12.9265 1.83276 12.9265V9.92651ZM40.9501 12.4872C41.5359 11.9014 41.5359 10.9516 40.9501 10.3659L31.4041 0.819912C30.8183 0.234126 29.8686 0.234126 29.2828 0.819912C28.697 1.4057 28.697 2.35545 29.2828 2.94123L37.7681 11.4265L29.2828 19.9118C28.697 20.4976 28.697 21.4473 29.2828 22.0331C29.8686 22.6189 30.8183 22.6189 31.4041 22.0331L40.9501 12.4872ZM1.83276 12.9265H39.8894V9.92651H1.83276V12.9265Z" fill="white"/>
</svg>
