<svg width="133" height="99" viewBox="0 0 133 99" fill="none" xmlns="http://www.w3.org/2000/svg">
<path d="M77.907 42.2088C80.7287 38.5719 86.2324 38.6018 89.0144 42.269L102.29 59.7693C104.188 62.2706 104.188 65.7294 102.29 68.2307L89.0144 85.731C86.2324 89.3982 80.7287 89.4281 77.907 85.7912L64.3292 68.291C62.37 65.7658 62.37 62.2342 64.3292 59.709L77.907 42.2088Z" fill="#00979E"/>
<path d="M49.907 73.2088C52.7287 69.5719 58.2324 69.6018 61.0144 73.269L74.2905 90.7693C76.188 93.2706 76.188 96.7294 74.2905 99.2307L61.0144 116.731C58.2324 120.398 52.7287 120.428 49.907 116.791L36.3292 99.291C34.37 96.7658 34.37 93.2342 36.3292 90.709L49.907 73.2088Z" fill="#00979E"/>
<path d="M16.907 7.20875C19.7287 3.57188 25.2324 3.60175 28.0144 7.26903L41.2905 24.7693C43.188 27.2706 43.188 30.7294 41.2905 33.2307L28.0144 50.731C25.2324 54.3982 19.7287 54.4281 16.907 50.7912L3.3292 33.291C1.37 30.7658 1.37 27.2342 3.32921 24.709L16.907 7.20875Z" fill="#00979E"/>
<path d="M104.907 73.2088C107.729 69.5719 113.232 69.6018 116.014 73.269L129.29 90.7693C131.188 93.2706 131.188 96.7294 129.29 99.2307L116.014 116.731C113.232 120.398 107.729 120.428 104.907 116.791L91.3292 99.291C89.37 96.7658 89.37 93.2342 91.3292 90.709L104.907 73.2088Z" fill="#00979E"/>
</svg>
