<svg width="157" height="102" viewBox="0 0 157 102" fill="none" xmlns="http://www.w3.org/2000/svg">
<g clip-path="url(#clip0_458_1047)">
<circle cx="94" cy="91" r="91" fill="#FFE2A8"/>
<path d="M117.142 14.4829C118.681 11.8162 122.53 11.8162 124.07 14.4829L150.201 59.7435C151.741 62.4102 149.816 65.7435 146.737 65.7435H94.4748C91.3956 65.7435 89.4711 62.4102 91.0107 59.7435L117.142 14.4829Z" fill="white" fill-opacity="0.58"/>
<path d="M91.6927 8.31347C93.2323 5.64681 97.0813 5.64681 98.6209 8.31348L138.109 76.7097C139.649 79.3763 137.725 82.7097 134.645 82.7097H55.6682C52.589 82.7097 50.6645 79.3763 52.2041 76.7097L91.6927 8.31347Z" fill="white" fill-opacity="0.58"/>
<path d="M60.8452 42.2456C62.3848 39.5789 66.2338 39.5789 67.7734 42.2456L87.8939 77.0952C89.4335 79.7619 87.509 83.0952 84.4298 83.0952H44.1889C41.1097 83.0952 39.1852 79.7619 40.7248 77.0952L60.8452 42.2456Z" fill="white" fill-opacity="0.58"/>
</g>
<defs>
<clipPath id="clip0_458_1047">
<rect width="159" height="102" fill="white"/>
</clipPath>
</defs>
</svg>
