<svg width="148" height="36" viewBox="0 0 148 36" fill="none" xmlns="http://www.w3.org/2000/svg">
<path d="M15.0359 5.99999C16.5755 3.33333 20.4245 3.33333 21.9641 6L31.0574 21.75C32.597 24.4167 30.6725 27.75 27.5933 27.75H9.40673C6.32753 27.75 4.40303 24.4167 5.94263 21.75L15.0359 5.99999Z" fill="white" fill-opacity="0.58"/>
<path d="M52.0359 5.99999C53.5755 3.33333 57.4245 3.33333 58.9641 6L68.0574 21.75C69.597 24.4167 67.6725 27.75 64.5933 27.75H46.4067C43.3275 27.75 41.403 24.4167 42.9426 21.75L52.0359 5.99999Z" fill="white" fill-opacity="0.58"/>
<path d="M89.0359 5.99999C90.5755 3.33333 94.4245 3.33333 95.9641 6L105.057 21.75C106.597 24.4167 104.672 27.75 101.593 27.75H83.4067C80.3275 27.75 78.403 24.4167 79.9426 21.75L89.0359 5.99999Z" fill="white" fill-opacity="0.58"/>
<path d="M126.036 5.99999C127.576 3.33333 131.425 3.33333 132.964 6L142.057 21.75C143.597 24.4167 141.672 27.75 138.593 27.75H120.407C117.328 27.75 115.403 24.4167 116.943 21.75L126.036 5.99999Z" fill="#FFC39C"/>
</svg>
