<svg width="26" height="17" viewBox="0 0 26 17" fill="none" xmlns="http://www.w3.org/2000/svg">
<path fill-rule="evenodd" clip-rule="evenodd" d="M20.7278 1.12136C21.8994 -0.0502174 23.7989 -0.0502175 24.9704 1.12136C26.142 2.29293 26.142 4.19242 24.9704 5.364L15.4657 14.8688C15.3818 14.9802 15.2891 15.0872 15.1876 15.1887C15.0144 15.3618 14.8254 15.5094 14.6252 15.6313C13.4585 16.4185 11.8607 16.2959 10.8283 15.2635C10.6082 15.0434 10.4295 14.7976 10.2921 14.5358L1.12123 5.36497C-0.0503407 4.1934 -0.0503388 2.2939 1.12123 1.12233C2.29281 -0.0492409 4.1923 -0.0492408 5.36387 1.12233L13.0453 8.80381L20.7278 1.12136Z" fill="#D8D8D8"/>
</svg>
