<svg width="877" height="604" viewBox="0 0 877 604" fill="none" xmlns="http://www.w3.org/2000/svg">
<path d="M582.728 281.867L428.463 0L362.572 126.825L457.258 302.816L508.202 231.802L710.438 586.614H121.53L112.314 603.729H876.023L645.577 194.26L582.728 281.867Z" fill="#245656"/>
<path d="M457.077 317.618L331.998 89.0791L265.063 216.829L328.104 334.711L368.593 279.358L526.965 560.546H85.1097L75.6636 578.585H694.881L508.035 246.586L457.077 317.618Z" fill="#009C92"/>
<path d="M327.61 348.386L229.434 169.002L179.134 265.057L166.101 289.346L159.585 301.49L169.772 321.491L201.49 378.766L227.662 342.244L336.254 534.006H47.3676L28.2334 553.222H514.265L367.607 292.632L327.61 348.386Z" fill="#00B3B3"/>
<path d="M134.492 269.379L0 526.21H324.887L226.854 352.019L200.118 389.288L134.492 269.379Z" fill="#00B5C0"/>
<path d="M167.455 506.727L94.1914 507.233L153.541 476.795L226.92 476.795L167.455 506.727Z" fill="#9DA19E"/>
<path d="M111.019 381.112L116.795 342.389L156.374 333.832L142.682 385.177C148.755 390.057 148.235 399.461 141.661 403.642L140.756 404.217L157.657 406.357L192.743 453.851L207.505 465.618L225.271 475.303L153.933 476.426L94.3317 507.335L81.9387 507.566C69.2661 507.802 57.8368 499.98 53.4695 488.081C45.4876 470.122 47.35 449.313 58.3943 433.057L59.6736 431.174L89.8387 396.516L105.456 381.112H111.019Z" fill="#727272"/>
<path d="M83.7034 417.642L75.3652 413.168L89.9739 396.486L124.097 448.205C127.43 453.257 131.834 457.515 136.996 460.676L156.731 472.761L153.663 476.982L127.041 490.709L119.612 464.267C117.866 458.05 115.165 452.141 111.606 446.752L105.552 437.585C100.034 429.229 92.5264 422.377 83.7034 417.642Z" fill="#D9D9D8"/>
<path d="M132.386 453.311L96.7295 399.661L154.685 408.602L176.687 438.31L187.689 453.164L200.423 465.707L198.69 468.018L157.997 468.655L132.386 453.311Z" fill="#232321"/>
<path d="M166.848 464.944H227.576L223.262 476.89H157.557L166.848 464.944Z" fill="white"/>
<path d="M163.53 460.962H172.324L161.788 476.891H169.835L179.791 460.962H187.921L177.966 476.891H186.262L196.715 460.962H204.181L194.226 476.891H202.356L212.478 460.962H220.276L210.321 476.891H218.783L228.738 460.962H237.034L226.747 476.891H218.783H210.321H202.356H194.226H186.262H177.966H169.835H161.788H153.741L163.53 460.962Z" fill="#9DA19E"/>
<circle cx="108.413" cy="390.476" r="3.15091" fill="white"/>
<path d="M111.389 380.207L113.186 380.569C123.502 382.652 123.992 397.216 113.84 399.987V399.987" stroke="white" stroke-width="1.00687"/>
</svg>
